<?xml version="1.0" encoding="UTF-8" standalone="no"?>
<!-- Created with Inkscape (http://www.inkscape.org/) -->

<svg
   version="1.1"
   id="svg824"
   xml:space="preserve"
   width="626.60663"
   height="485.75598"
   viewBox="0 0 626.60664 485.75597"
   sodipodi:docname="Novaland Logo.svg"
   inkscape:version="1.1 (c68e22c387, 2021-05-23)"
   xmlns:inkscape="http://www.inkscape.org/namespaces/inkscape"
   xmlns:sodipodi="http://sodipodi.sourceforge.net/DTD/sodipodi-0.dtd"
   xmlns="http://www.w3.org/2000/svg"
   xmlns:svg="http://www.w3.org/2000/svg"><defs
     id="defs828"><clipPath
       clipPathUnits="userSpaceOnUse"
       id="clipPath852"><path
         d="m 46.995,93.386 h 93.991 V 166.25 H 46.995 Z"
         id="path850" /></clipPath></defs><sodipodi:namedview
     id="namedview826"
     pagecolor="#ffffff"
     bordercolor="#666666"
     borderopacity="1.0"
     inkscape:pageshadow="2"
     inkscape:pageopacity="0.0"
     inkscape:pagecheckerboard="0"
     showgrid="false"
     inkscape:zoom="0.65312309"
     inkscape:cx="242.68013"
     inkscape:cy="287.08218"
     inkscape:window-width="1920"
     inkscape:window-height="1002"
     inkscape:window-x="-8"
     inkscape:window-y="-8"
     inkscape:window-maximized="1"
     inkscape:current-layer="g830" /><g
     id="g830"
     inkscape:groupmode="layer"
     inkscape:label="novaland"
     transform="matrix(1.3333333,0,0,-1.3333333,-30.231359,53.704465)"><g
       id="g846"
       transform="matrix(5,0,0,5,-212.30148,-790.96865)"><g
         id="g848"
         clip-path="url(#clipPath852)"><g
           id="g854"
           transform="translate(85.1843,161.6327)"><path
             d="M 0,0 C -0.159,-0.122 -2.1,-1.696 -2.592,-2.097 H 2.61 C 2.119,-1.696 0.152,-0.122 0,0"
             style="fill:#53a037;fill-opacity:1;fill-rule:evenodd;stroke:none"
             id="path856" /></g><g
           id="g858"
           transform="translate(74.6358,150.8643)"><path
             d="m 0,0 v 0 c 1.447,-2.631 6.689,-12.19 7.131,-12.979 v 5.521 l -1.568,2.767 z"
             style="fill:#53a037;fill-opacity:1;fill-rule:evenodd;stroke:none"
             id="path860" /></g><g
           id="g862"
           transform="translate(78.6049,154.4479)"><path
             d="m 0,0 v 0 h 13.001 l 1.373,-1.071 c 0.253,0.21 0.508,0.41 0.753,0.602 -1.351,1.186 -2.693,2.35 -2.729,2.392 H 0.533 c -0.04,-0.042 -1.267,-1.171 -2.51,-2.331 0.265,-0.215 0.541,-0.441 0.826,-0.663 z"
             style="fill:#53a037;fill-opacity:1;fill-rule:evenodd;stroke:none"
             id="path864" /></g><g
           id="g866"
           transform="translate(74.0797,136.939)"><path
             d="M 0,0 V 0 7.436 L 3.041,1.859 Z"
             style="fill:#53a037;fill-opacity:1;fill-rule:evenodd;stroke:none"
             id="path868" /></g><g
           id="g870"
           transform="translate(94.0656,145.2764)"><path
             d="m 0,0 v 0 -2.984 l -5.45,-4.407 v -2.791 c 0.448,0.358 7.603,6.148 7.71,6.232 V 1.819 C 2.108,1.696 1.17,0.942 0,0"
             style="fill:#53a037;fill-opacity:1;fill-rule:evenodd;stroke:none"
             id="path872" /></g><g
           id="g874"
           transform="translate(82.0536,137.3157)"><path
             d="m 0,0 c 0,-0.054 -0.042,-0.122 -0.109,-0.135 -0.068,-0.014 -0.139,0.009 -0.168,0.07 0,0 -7.728,14.086 -7.756,14.134 -0.025,0.02 -0.071,0.061 -0.134,0.111 l -3.084,2.601 V 2.218 c 0.096,-0.072 2.59,-2.109 2.99,-2.427 v 7.844 c 0,0.068 0.042,0.114 0.112,0.14 0.061,0.005 0.128,-0.026 0.162,-0.072 0,0 7.878,-14.467 7.897,-14.505 0.045,-0.04 2.62,-2.102 3.025,-2.44 0,0.58 0.046,13.885 0.046,14.02 L 0,7.304 Z"
             style="fill:#80cc28;fill-opacity:1;fill-rule:evenodd;stroke:none"
             id="path876" /></g><g
           id="g878"
           transform="translate(98.5039,153.5381)"><path
             d="m 0,0 v 0 l -3.251,-2.731 c -4.174,-3.516 -9.94,-8.36 -10.061,-8.464 l -3.19,2.696 c -2.315,1.945 -5.434,4.575 -7.772,6.553 l -3.312,2.784 c 0.234,0.194 2.254,1.83 2.42,1.953 0.182,-0.135 11.751,-9.504 11.751,-9.504 0.053,-0.048 0.13,-0.048 0.182,0 0,0 11.643,9.341 11.82,9.49 C -1.247,2.652 0.759,1.021 0.99,0.833 0.948,0.792 0.59,0.495 0.002,0 Z"
             style="fill:#80cc28;fill-opacity:1;fill-rule:evenodd;stroke:none"
             id="path880" /></g><g
           id="g882"
           transform="translate(88.3385,159.3488)"><path
             d="m 0,0 c -0.016,-0.057 -0.075,-0.101 -0.136,-0.101 h -6.017 c -0.056,0 -0.112,0.044 -0.132,0.101 -0.023,0.057 -10e-4,0.113 0.042,0.161 l 2.994,2.415 c 0.06,0.045 0.129,0.045 0.182,0 L -0.048,0.161 C 0,0.113 0.022,0.057 0,0 m 4.114,0.738 c 0,0 -7.116,5.723 -7.268,5.851 -0.108,-0.088 -7.516,-6.103 -11.613,-9.416 0.371,-0.301 1.458,-1.18 2.831,-2.295 1.285,1.193 2.576,2.398 2.576,2.398 0.021,0.02 0.06,0.034 0.099,0.034 H 2.711 c 0.043,0 0.067,-0.014 0.101,-0.034 0,0 1.423,-1.249 2.806,-2.454 1.426,1.132 2.553,2.04 2.92,2.338 C 6.53,-1.222 4.114,0.738 4.114,0.738"
             style="fill:#80cc28;fill-opacity:1;fill-rule:evenodd;stroke:none"
             id="path884" /></g><g
           id="g886"
           transform="translate(82.6003,159.5359)"><path
             d="M 0,0 C 0.211,0.175 0.702,0.574 1.199,0.979 1.236,1.008 1.272,1.037 1.307,1.066 1.342,1.095 1.378,1.123 1.413,1.152 1.466,1.195 1.519,1.238 1.572,1.28 2.074,1.686 2.512,2.039 2.584,2.091 2.652,2.039 3.094,1.686 3.603,1.28 4.023,0.943 4.489,0.569 4.826,0.297 4.855,0.274 4.882,0.253 4.907,0.231 4.934,0.21 4.96,0.189 4.984,0.17 5.068,0.102 5.138,0.043 5.192,0 Z M 5.69,-0.025 2.671,2.388 c -0.052,0.046 -0.129,0.046 -0.182,0 l -2.994,-2.413 c -0.043,-0.046 -0.065,-0.105 -0.042,-0.168 0.02,-0.051 0.076,-0.09 0.133,-0.09 h 6.016 c 0.065,0 0.12,0.039 0.136,0.09 0.026,0.063 0,0.122 -0.048,0.168 M 1.307,1.066 C 1.342,1.095 1.378,1.123 1.413,1.152 1.466,1.195 1.519,1.238 1.572,1.28 2.074,1.686 2.512,2.039 2.584,2.091 2.652,2.039 3.094,1.686 3.603,1.28 4.023,0.943 4.489,0.569 4.826,0.297 4.855,0.274 4.882,0.253 4.907,0.231 4.934,0.21 4.96,0.189 4.984,0.17 5.068,0.102 5.138,0.043 5.192,0 H 0 c 0.211,0.175 0.702,0.574 1.199,0.979 0.037,0.029 0.073,0.058 0.108,0.087 m -1.721,-1.349 h 6.016 c 0.065,0 0.12,0.039 0.136,0.09 0.026,0.063 0,0.122 -0.048,0.168 L 2.671,2.388 c -0.052,0.046 -0.129,0.046 -0.182,0 l -2.994,-2.413 c -0.043,-0.046 -0.065,-0.105 -0.042,-0.168 0.02,-0.051 0.076,-0.09 0.133,-0.09 m 14.139,-17.926 c -0.029,-0.023 -0.585,-0.473 -1.387,-1.121 -0.046,-0.037 -0.093,-0.074 -0.14,-0.113 -0.023,-0.02 -0.048,-0.038 -0.072,-0.058 -0.048,-0.039 -0.097,-0.078 -0.146,-0.119 -0.025,-0.019 -0.05,-0.04 -0.075,-0.06 -0.075,-0.061 -0.152,-0.123 -0.23,-0.186 -0.052,-0.042 -0.105,-0.085 -0.157,-0.128 -0.054,-0.042 -0.108,-0.085 -0.161,-0.129 -0.027,-0.022 -0.055,-0.044 -0.082,-0.066 -0.054,-0.044 -0.109,-0.089 -0.164,-0.134 -0.083,-0.066 -0.168,-0.134 -0.252,-0.203 -0.028,-0.022 -0.057,-0.045 -0.085,-0.068 -0.056,-0.045 -0.114,-0.092 -0.17,-0.139 -0.057,-0.046 -0.115,-0.092 -0.172,-0.139 -0.058,-0.046 -0.116,-0.093 -0.173,-0.14 -0.347,-0.28 -0.698,-0.564 -1.043,-0.843 -0.028,-0.022 -0.058,-0.046 -0.086,-0.069 -0.057,-0.046 -0.113,-0.092 -0.171,-0.138 -0.028,-0.023 -0.056,-0.046 -0.084,-0.069 -0.085,-0.068 -0.169,-0.136 -0.252,-0.203 -0.056,-0.045 -0.11,-0.089 -0.165,-0.134 -0.109,-0.088 -0.216,-0.174 -0.321,-0.26 -0.105,-0.085 -0.209,-0.168 -0.309,-0.25 -0.051,-0.04 -0.1,-0.081 -0.149,-0.12 -0.05,-0.04 -0.098,-0.078 -0.145,-0.117 -0.071,-0.058 -0.141,-0.114 -0.208,-0.169 -0.045,-0.037 -0.091,-0.072 -0.134,-0.107 -0.043,-0.035 -0.085,-0.07 -0.128,-0.104 -0.041,-0.033 -0.081,-0.066 -0.121,-0.098 -0.04,-0.032 -0.079,-0.063 -0.116,-0.094 -0.019,-0.015 -0.038,-0.03 -0.056,-0.045 C 6.698,-23.892 6.628,-23.947 6.563,-24 6.531,-24.025 6.5,-24.05 6.47,-24.075 6.426,-24.111 6.384,-24.144 6.345,-24.176 6.306,-24.207 6.269,-24.236 6.236,-24.264 6.203,-24.29 6.173,-24.314 6.147,-24.336 6.129,-24.35 6.112,-24.363 6.098,-24.376 6.061,-24.405 6.033,-24.427 6.015,-24.441 v 5.798 c 0.096,0.078 6.716,5.405 7.629,6.137 0.036,0.03 0.064,0.051 0.081,0.065 z m 0.199,6.202 c -0.044,0.032 -0.101,0.018 -0.15,-0.019 l -7.991,-6.447 c -0.036,-0.028 -0.051,-0.063 -0.051,-0.111 v -6.164 c 0,-0.049 0.021,-0.104 0.08,-0.125 0.046,-0.022 0.108,-0.017 0.153,0.019 l 7.995,6.462 c 0.036,0.032 0.061,0.066 0.061,0.115 v 6.135 c 0,0.054 -0.038,0.116 -0.097,0.135 m 3.081,-7.865 C 16.898,-19.954 3.197,-31.087 2.733,-31.455 v 14 l 7.063,5.943 c 3.2,2.698 6.3,5.292 6.3,5.292 0,0 0.612,0.497 0.909,0.733 z m -14.414,2.685 -3.189,2.685 c -2.315,1.95 -5.433,4.576 -7.772,6.558 l -3.313,2.784 c 0.234,0.194 2.255,1.83 2.421,1.953 0.182,-0.134 11.751,-9.501 11.751,-9.501 0.06,-0.05 0.13,-0.05 0.182,0 0,0 11.643,9.338 11.82,9.488 0.166,-0.132 2.171,-1.757 2.403,-1.944 -0.042,-0.042 -0.4,-0.339 -0.988,-0.834 H 15.903 L 12.652,-8.729 C 8.477,-12.245 2.713,-17.088 2.591,-17.187 m -8.138,4.114 c -0.024,0.044 -0.047,0.087 -0.072,0.13 -0.07,0.128 -0.14,0.255 -0.209,0.381 -0.023,0.043 -0.046,0.086 -0.07,0.127 -0.069,0.126 -0.137,0.25 -0.205,0.372 -0.787,1.435 -1.466,2.671 -1.862,3.391 l 7.131,-6 v -6.979 c -0.041,0.074 -0.125,0.227 -0.243,0.442 -0.723,1.312 -2.744,4.993 -4.47,8.136 m 4.911,-15.949 c -0.022,0.038 -7.898,14.504 -7.898,14.504 -0.033,0.047 -0.101,0.077 -0.168,0.073 -0.065,-0.026 -0.106,-0.073 -0.106,-0.141 v -7.843 c -0.4,0.319 -2.894,2.355 -2.989,2.427 v 14.563 l 3.084,-2.599 c 0.063,-0.053 0.108,-0.093 0.134,-0.113 0.028,-0.048 7.756,-14.134 7.756,-14.134 0.033,-0.061 0.098,-0.087 0.165,-0.071 0.07,0.014 0.111,0.074 0.111,0.136 v 7.304 l 2.916,-2.474 0.019,-14.072 c -0.407,0.341 -2.98,2.4 -3.024,2.44 m 11.767,23.465 c -3.45,-2.766 -8.43,-6.758 -8.547,-6.856 -0.115,0.093 -4.555,3.683 -7.942,6.422 -0.041,0.032 -0.081,0.065 -0.122,0.097 -0.055,0.045 -0.111,0.09 -0.166,0.134 -0.11,0.089 -0.219,0.178 -0.326,0.264 0.427,0.399 0.852,0.795 1.228,1.142 0.682,0.634 1.2,1.114 1.274,1.182 0.004,0.004 0.006,0.006 0.007,0.007 H 8.403 c 0.011,-0.013 0.149,-0.136 0.377,-0.334 0.022,-0.02 0.046,-0.041 0.07,-0.062 0.293,-0.256 0.706,-0.617 1.172,-1.025 0.273,-0.237 0.562,-0.49 0.857,-0.749 0.084,-0.073 0.168,-0.147 0.252,-0.222 M 2.584,6.402 C 2.736,6.274 9.853,0.549 9.853,0.549 c 0,0 2.418,-1.959 4.424,-3.576 C 13.904,-3.325 12.782,-4.233 11.356,-5.365 9.973,-4.154 8.55,-2.912 8.55,-2.912 8.517,-2.891 8.493,-2.877 8.455,-2.877 H -3.523 c -0.038,0 -0.078,-0.014 -0.098,-0.035 0,0 -1.291,-1.205 -2.577,-2.397 -1.372,1.115 -2.46,1.993 -2.831,2.295 4.097,3.317 11.506,9.325 11.613,9.416 M 17.213,-5.056 2.682,6.682 c -0.047,0.042 -0.149,0.042 -0.201,0 l -14.574,-11.77 v -14.98 c 0,-0.049 0.023,-0.091 0.056,-0.118 l 3.28,-2.664 c 0.044,-0.036 0.107,-0.043 0.152,-0.013 0.054,0.019 0.084,0.071 0.084,0.129 v 7.573 c 0,-0.001 0.001,-0.001 0.001,-0.002 0.007,-0.014 0.017,-0.031 0.028,-0.05 0.006,-0.011 0.011,-0.021 0.018,-0.033 0.019,-0.035 0.041,-0.076 0.067,-0.123 l 0.056,-0.103 c 0.021,-0.037 0.042,-0.077 0.065,-0.118 l 0.072,-0.134 c 0.076,-0.14 0.165,-0.301 0.263,-0.482 l 0.099,-0.179 c 0.002,-0.005 0.004,-0.01 0.007,-0.014 l 0.105,-0.193 0.115,-0.211 c 0.563,-1.034 1.328,-2.442 2.143,-3.938 2.135,-3.925 4.601,-8.462 4.601,-8.462 0.01,-0.004 0.023,-0.021 0.032,-0.039 l 3.283,-2.692 c 0.047,-0.044 0.108,-0.046 0.157,-0.019 0.031,0.01 0.053,0.033 0.075,0.065 0,0 0.005,0 0.011,0.01 l 14.565,11.833 c 0.038,0.021 0.056,0.24 0.056,0.24 v 14.621 c 0,0.055 -0.038,0.113 -0.085,0.128 M 0,0 C 0.211,0.175 0.702,0.574 1.199,0.979 1.236,1.008 1.272,1.037 1.307,1.066 1.342,1.095 1.378,1.123 1.413,1.152 1.466,1.195 1.519,1.238 1.572,1.28 2.074,1.686 2.512,2.039 2.584,2.091 2.652,2.039 3.094,1.686 3.603,1.28 4.023,0.943 4.489,0.569 4.826,0.297 4.855,0.274 4.882,0.253 4.907,0.231 4.934,0.21 4.96,0.189 4.984,0.17 5.068,0.102 5.138,0.043 5.192,0 Z M 5.69,-0.025 2.671,2.388 c -0.052,0.046 -0.129,0.046 -0.182,0 l -2.994,-2.413 c -0.043,-0.046 -0.065,-0.105 -0.042,-0.168 0.02,-0.051 0.076,-0.09 0.133,-0.09 h 6.016 c 0.065,0 0.12,0.039 0.136,0.09 0.026,0.063 0,0.122 -0.048,0.168 m 8.035,-18.184 c -0.029,-0.023 -0.585,-0.473 -1.387,-1.121 -0.046,-0.037 -0.093,-0.074 -0.14,-0.113 -0.023,-0.02 -0.048,-0.038 -0.072,-0.058 -0.048,-0.039 -0.097,-0.078 -0.146,-0.119 -0.025,-0.019 -0.05,-0.04 -0.075,-0.06 -0.075,-0.061 -0.152,-0.123 -0.23,-0.186 -0.052,-0.042 -0.105,-0.085 -0.157,-0.128 -0.054,-0.042 -0.108,-0.085 -0.161,-0.129 -0.027,-0.022 -0.055,-0.044 -0.082,-0.066 -0.054,-0.044 -0.109,-0.089 -0.164,-0.134 -0.083,-0.066 -0.168,-0.134 -0.252,-0.203 -0.028,-0.022 -0.057,-0.045 -0.085,-0.068 -0.056,-0.045 -0.114,-0.092 -0.17,-0.139 -0.057,-0.046 -0.115,-0.092 -0.172,-0.139 -0.058,-0.046 -0.116,-0.093 -0.173,-0.14 -0.347,-0.28 -0.698,-0.564 -1.043,-0.843 -0.028,-0.022 -0.058,-0.046 -0.086,-0.069 -0.057,-0.046 -0.113,-0.092 -0.171,-0.138 -0.028,-0.023 -0.056,-0.046 -0.084,-0.069 -0.085,-0.068 -0.169,-0.136 -0.252,-0.203 -0.056,-0.045 -0.11,-0.089 -0.165,-0.134 -0.109,-0.088 -0.216,-0.174 -0.321,-0.26 -0.105,-0.085 -0.209,-0.168 -0.309,-0.25 -0.051,-0.04 -0.1,-0.081 -0.149,-0.12 -0.05,-0.04 -0.098,-0.078 -0.145,-0.117 -0.071,-0.058 -0.141,-0.114 -0.208,-0.169 -0.045,-0.037 -0.091,-0.072 -0.134,-0.107 -0.043,-0.035 -0.085,-0.07 -0.128,-0.104 -0.041,-0.033 -0.081,-0.066 -0.121,-0.098 -0.04,-0.032 -0.079,-0.063 -0.116,-0.094 -0.019,-0.015 -0.038,-0.03 -0.056,-0.045 C 6.698,-23.892 6.628,-23.947 6.563,-24 6.531,-24.025 6.5,-24.05 6.47,-24.075 6.426,-24.111 6.384,-24.144 6.345,-24.176 6.306,-24.207 6.269,-24.236 6.236,-24.264 6.203,-24.29 6.173,-24.314 6.147,-24.336 6.129,-24.35 6.112,-24.363 6.098,-24.376 6.061,-24.405 6.033,-24.427 6.015,-24.441 v 5.798 c 0.096,0.078 6.716,5.405 7.629,6.137 0.036,0.03 0.064,0.051 0.081,0.065 z m 0.199,6.202 c -0.044,0.032 -0.101,0.018 -0.15,-0.019 l -7.991,-6.447 c -0.036,-0.028 -0.051,-0.063 -0.051,-0.111 v -6.164 c 0,-0.049 0.021,-0.104 0.08,-0.125 0.046,-0.022 0.108,-0.017 0.153,0.019 l 7.995,6.462 c 0.036,0.032 0.061,0.066 0.061,0.115 v 6.135 c 0,0.054 -0.038,0.116 -0.097,0.135 m -0.199,-6.202 c -0.029,-0.023 -0.585,-0.473 -1.387,-1.121 -0.046,-0.037 -0.093,-0.074 -0.14,-0.113 -0.023,-0.02 -0.048,-0.038 -0.072,-0.058 -0.048,-0.039 -0.097,-0.078 -0.146,-0.119 -0.025,-0.019 -0.05,-0.04 -0.075,-0.06 -0.075,-0.061 -0.152,-0.123 -0.23,-0.186 -0.052,-0.042 -0.105,-0.085 -0.157,-0.128 -0.054,-0.042 -0.108,-0.085 -0.161,-0.129 -0.027,-0.022 -0.055,-0.044 -0.082,-0.066 -0.054,-0.044 -0.109,-0.089 -0.164,-0.134 -0.083,-0.066 -0.168,-0.134 -0.252,-0.203 -0.028,-0.022 -0.057,-0.045 -0.085,-0.068 -0.056,-0.045 -0.114,-0.092 -0.17,-0.139 -0.057,-0.046 -0.115,-0.092 -0.172,-0.139 -0.058,-0.046 -0.116,-0.093 -0.173,-0.14 -0.347,-0.28 -0.698,-0.564 -1.043,-0.843 -0.028,-0.022 -0.058,-0.046 -0.086,-0.069 -0.057,-0.046 -0.113,-0.092 -0.171,-0.138 -0.028,-0.023 -0.056,-0.046 -0.084,-0.069 -0.085,-0.068 -0.169,-0.136 -0.252,-0.203 -0.056,-0.045 -0.11,-0.089 -0.165,-0.134 -0.109,-0.088 -0.216,-0.174 -0.321,-0.26 -0.105,-0.085 -0.209,-0.168 -0.309,-0.25 -0.051,-0.04 -0.1,-0.081 -0.149,-0.12 -0.05,-0.04 -0.098,-0.078 -0.145,-0.117 -0.071,-0.058 -0.141,-0.114 -0.208,-0.169 -0.045,-0.037 -0.091,-0.072 -0.134,-0.107 -0.043,-0.035 -0.085,-0.07 -0.128,-0.104 -0.041,-0.033 -0.081,-0.066 -0.121,-0.098 -0.04,-0.032 -0.079,-0.063 -0.116,-0.094 -0.019,-0.015 -0.038,-0.03 -0.056,-0.045 C 6.698,-23.892 6.628,-23.947 6.563,-24 6.531,-24.025 6.5,-24.05 6.47,-24.075 6.426,-24.111 6.384,-24.144 6.345,-24.176 6.306,-24.207 6.269,-24.236 6.236,-24.264 6.203,-24.29 6.173,-24.314 6.147,-24.336 6.129,-24.35 6.112,-24.363 6.098,-24.376 6.061,-24.405 6.033,-24.427 6.015,-24.441 v 5.798 c 0.096,0.078 6.716,5.405 7.629,6.137 0.036,0.03 0.064,0.051 0.081,0.065 z m 0.199,6.202 c -0.044,0.032 -0.101,0.018 -0.15,-0.019 l -7.991,-6.447 c -0.036,-0.028 -0.051,-0.063 -0.051,-0.111 v -6.164 c 0,-0.049 0.021,-0.104 0.08,-0.125 0.046,-0.022 0.108,-0.017 0.153,0.019 l 7.995,6.462 c 0.036,0.032 0.061,0.066 0.061,0.115 v 6.135 c 0,0.054 -0.038,0.116 -0.097,0.135"
             style="fill:#ffffff;fill-opacity:1;fill-rule:evenodd;stroke:none"
             id="path888" /></g><g
           id="g890"
           transform="translate(96.6209,141.2584)"><path
             d="m 0,0 c 0,-0.049 -0.024,-0.083 -0.061,-0.115 l -7.995,-6.462 c -0.045,-0.035 -0.107,-0.041 -0.152,-0.018 -0.059,0.02 -0.081,0.076 -0.081,0.125 v 6.164 c 0,0.048 0.015,0.082 0.052,0.111 l 7.991,6.446 C -0.197,6.289 -0.141,6.302 -0.097,6.27 -0.038,6.251 0,6.189 0,6.136 Z m -11.287,0.822 v -14 c 0.463,0.369 14.164,11.501 14.271,11.584 V 12.838 C 2.687,12.602 -11.287,0.822 -11.287,0.822"
             style="fill:#80cc28;fill-opacity:1;fill-rule:evenodd;stroke:none"
             id="path892" /></g><g
           id="g894"
           transform="translate(66.009,150.9073)"><path
             d="m 0,0 v -15.691 h -4.13 l -12.36,13.712 v -13.712 h -2.524 V 0 h 4.103 L -2.523,-13.783 V 0 Z"
             style="fill:#142955;fill-opacity:1;fill-rule:evenodd;stroke:none"
             id="path896" /></g><g
           id="g898"
           transform="translate(119.8373,150.9073)"><path
             d="M 0,0 H 2.64 L -5.097,-15.691 H -8.609 L -16.414,0 h 2.622 l 5.822,-11.358 0.573,-1.217 c 0.218,-0.468 0.393,-0.87 0.531,-1.208 h 0.061 c 0.325,0.776 0.678,1.567 1.069,2.391 z"
             style="fill:#142955;fill-opacity:1;fill-rule:evenodd;stroke:none"
             id="path900" /></g><g
           id="g902"
           transform="translate(135.9981,140.3549)"><path
             d="M 0,0 -4.84,9.099 -9.616,0 Z m 0.712,-1.822 h -11.034 l -1.673,-3.317 h -2.606 l 7.988,15.691 h 3.455 L 4.988,-5.139 H 2.412 Z"
             style="fill:#142955;fill-opacity:1;fill-rule:evenodd;stroke:none"
             id="path904" /></g><path
           d="m 46.995,127.385 h 93.991 v 0.52 H 46.995 Z"
           style="fill:#142955;fill-opacity:1;fill-rule:nonzero;stroke:none"
           id="path906" /><g
           id="g908"
           transform="translate(59.0748,95.5074)"><path
             d="m 0,0 c 0,-0.332 -0.273,-0.597 -0.597,-0.597 h -1.091 c -0.332,0 -0.598,0.265 -0.598,0.597 v 1.924 c 0,0.332 0.266,0.598 0.598,0.598 h 1.091 C -0.273,2.522 0,2.256 0,1.924 Z M -0.406,3.192 H -1.88 c -0.634,0 -1.143,-0.508 -1.143,-1.135 v -2.182 c 0,-0.634 0.509,-1.143 1.143,-1.143 h 1.474 c 0.627,0 1.136,0.509 1.136,1.143 v 2.182 c 0,0.627 -0.509,1.135 -1.136,1.135"
             style="fill:#9d5e1e;fill-opacity:1;fill-rule:nonzero;stroke:none"
             id="path910" /></g><g
           id="g912"
           transform="translate(74.7865,95.5074)"><path
             d="m 0,0 c 0,-0.332 -0.273,-0.597 -0.597,-0.597 h -1.091 c -0.332,0 -0.598,0.265 -0.598,0.597 v 1.924 c 0,0.332 0.266,0.598 0.598,0.598 h 1.091 C -0.273,2.522 0,2.256 0,1.924 Z M -0.406,3.192 H -1.88 c -0.634,0 -1.143,-0.508 -1.143,-1.135 v -2.182 c 0,-0.634 0.509,-1.143 1.143,-1.143 h 1.474 c 0.627,0 1.136,0.509 1.136,1.143 v 2.182 c 0,0.627 -0.509,1.135 -1.136,1.135"
             style="fill:#9d5e1e;fill-opacity:1;fill-rule:nonzero;stroke:none"
             id="path914" /></g><g
           id="g916"
           transform="translate(89.8511,95.5074)"><path
             d="m 0,0 c 0,-0.332 -0.273,-0.597 -0.597,-0.597 h -1.091 c -0.332,0 -0.598,0.265 -0.598,0.597 v 1.924 c 0,0.332 0.266,0.598 0.598,0.598 h 1.091 C -0.273,2.522 0,2.256 0,1.924 Z M -0.406,3.192 H -1.88 c -0.634,0 -1.143,-0.508 -1.143,-1.135 v -2.182 c 0,-0.634 0.509,-1.143 1.143,-1.143 h 1.474 c 0.627,0 1.136,0.509 1.136,1.143 v 2.182 c 0,0.627 -0.509,1.135 -1.136,1.135"
             style="fill:#9d5e1e;fill-opacity:1;fill-rule:nonzero;stroke:none"
             id="path918" /></g><g
           id="g920"
           transform="translate(70.9898,98.6631)"><path
             d="m 0,0 v -3.281 c 0,-0.634 -0.516,-1.143 -1.143,-1.143 h -1.474 c -0.627,0 -1.143,0.509 -1.143,1.143 V 0 h 0.737 v -3.156 c 0,-0.331 0.266,-0.597 0.597,-0.597 h 1.091 c 0.332,0 0.598,0.266 0.598,0.597 V 0 Z"
             style="fill:#9d5e1e;fill-opacity:1;fill-rule:nonzero;stroke:none"
             id="path922" /></g><g
           id="g924"
           transform="translate(65.8091,95.5074)"><path
             d="m 0,0 c 0,-0.332 -0.273,-0.597 -0.597,-0.597 h -1.091 c -0.332,0 -0.598,0.265 -0.598,0.597 v 1.924 c 0,0.332 0.266,0.598 0.598,0.598 h 1.091 C -0.273,2.522 0,2.256 0,1.924 v -0.29 h 0.73 v 0.423 c 0,0.627 -0.509,1.135 -1.136,1.135 H -1.88 c -0.634,0 -1.143,-0.508 -1.143,-1.135 v -2.182 c 0,-0.634 0.509,-1.143 1.143,-1.143 h 1.474 c 0.627,0 1.136,0.509 1.136,1.143 v 0.53 H 0 Z"
             style="fill:#9d5e1e;fill-opacity:1;fill-rule:nonzero;stroke:none"
             id="path926" /></g><g
           id="g928"
           transform="translate(50.0185,95.5074)"><path
             d="m 0,0 c 0,-0.332 -0.273,-0.597 -0.597,-0.597 h -1.091 c -0.332,0 -0.598,0.265 -0.598,0.597 v 1.924 c 0,0.332 0.266,0.598 0.598,0.598 h 1.091 C -0.273,2.522 0,2.256 0,1.924 v -0.29 h 0.73 v 0.423 c 0,0.627 -0.509,1.135 -1.136,1.135 H -1.88 c -0.634,0 -1.143,-0.508 -1.143,-1.135 v -2.182 c 0,-0.634 0.509,-1.143 1.143,-1.143 h 1.474 c 0.627,0 1.136,0.509 1.136,1.143 v 0.53 H 0 Z"
             style="fill:#9d5e1e;fill-opacity:1;fill-rule:nonzero;stroke:none"
             id="path930" /></g><g
           id="g932"
           transform="translate(79.1422,95.5074)"><path
             d="m 0,0 c 0,-0.332 -0.273,-0.597 -0.597,-0.597 h -1.091 c -0.332,0 -0.598,0.265 -0.598,0.597 v 1.924 c 0,0.332 0.266,0.598 0.598,0.598 h 1.091 C -0.273,2.522 0,2.256 0,1.924 v -0.29 h 0.73 v 0.423 c 0,0.627 -0.509,1.135 -1.136,1.135 H -1.88 c -0.634,0 -1.143,-0.508 -1.143,-1.135 v -2.182 c 0,-0.634 0.509,-1.143 1.143,-1.143 h 1.474 c 0.627,0 1.136,0.509 1.136,1.143 v 0.53 H 0 Z"
             style="fill:#9d5e1e;fill-opacity:1;fill-rule:nonzero;stroke:none"
             id="path934" /></g><g
           id="g936"
           transform="translate(99.369,97.2327)"><path
             d="m 0,0 v 0.184 c 0,0.34 -0.28,0.62 -0.627,0.62 h -1.209 c -0.339,0 -0.619,-0.28 -0.619,-0.62 v -1.887 c 0,-0.339 0.28,-0.62 0.619,-0.62 h 1.209 c 0.347,0 0.627,0.281 0.627,0.62 v 0.413 h -1.438 v 0.634 h 2.175 v -1.165 c 0,-0.649 -0.523,-1.173 -1.165,-1.173 h -1.6 c -0.648,0 -1.172,0.524 -1.172,1.173 v 2.123 c 0,0.649 0.524,1.173 1.172,1.173 h 1.6 c 0.642,0 1.165,-0.524 1.165,-1.173 L 0.737,0 Z"
             style="fill:#9d5e1e;fill-opacity:1;fill-rule:nonzero;stroke:none"
             id="path938" /></g><g
           id="g940"
           transform="translate(120.3879,97.2327)"><path
             d="m 0,0 v 0.184 c 0,0.34 -0.28,0.62 -0.627,0.62 h -1.209 c -0.339,0 -0.619,-0.28 -0.619,-0.62 v -1.887 c 0,-0.339 0.28,-0.62 0.619,-0.62 h 1.209 c 0.347,0 0.627,0.281 0.627,0.62 v 0.413 h -1.438 v 0.634 h 2.175 v -1.165 c 0,-0.649 -0.523,-1.173 -1.165,-1.173 h -1.6 c -0.648,0 -1.172,0.524 -1.172,1.173 v 2.123 c 0,0.649 0.524,1.173 1.172,1.173 h 1.6 c 0.642,0 1.165,-0.524 1.165,-1.173 L 0.737,0 Z"
             style="fill:#9d5e1e;fill-opacity:1;fill-rule:nonzero;stroke:none"
             id="path942" /></g><g
           id="g944"
           transform="translate(140.2491,97.2327)"><path
             d="m 0,0 v 0.184 c 0,0.34 -0.28,0.62 -0.627,0.62 h -1.209 c -0.339,0 -0.619,-0.28 -0.619,-0.62 v -1.887 c 0,-0.339 0.28,-0.62 0.619,-0.62 h 1.209 c 0.347,0 0.627,0.281 0.627,0.62 v 0.413 h -1.438 v 0.634 h 2.175 v -1.165 c 0,-0.649 -0.523,-1.173 -1.165,-1.173 h -1.6 c -0.648,0 -1.172,0.524 -1.172,1.173 v 2.123 c 0,0.649 0.524,1.173 1.172,1.173 h 1.6 c 0.642,0 1.165,-0.524 1.165,-1.173 L 0.737,0 Z"
             style="fill:#9d5e1e;fill-opacity:1;fill-rule:nonzero;stroke:none"
             id="path946" /></g><g
           id="g948"
           transform="translate(94.6801,98.6651)"><path
             d="M 0,0 V -3.544 L -2.338,0 h -0.278 -0.59 -0.166 v -4.384 h 0.756 v 3.504 l 2.353,-3.504 H 0 0.555 0.756 V 0 Z"
             style="fill:#9d5e1e;fill-opacity:1;fill-rule:nonzero;stroke:none"
             id="path950" /></g><g
           id="g952"
           transform="translate(115.6987,98.6651)"><path
             d="M 0,0 V -3.544 L -2.338,0 h -0.278 -0.59 -0.166 v -4.384 h 0.756 v 3.504 l 2.353,-3.504 H 0 0.555 0.756 V 0 Z"
             style="fill:#9d5e1e;fill-opacity:1;fill-rule:nonzero;stroke:none"
             id="path954" /></g><g
           id="g956"
           transform="translate(135.56,98.6651)"><path
             d="M 0,0 V -3.544 L -2.338,0 h -0.278 -0.59 -0.166 v -4.384 h 0.756 v 3.504 l 2.353,-3.504 H 0 0.555 0.756 V 0 Z"
             style="fill:#9d5e1e;fill-opacity:1;fill-rule:nonzero;stroke:none"
             id="path958" /></g><g
           id="g960"
           transform="translate(54.5685,98.6651)"><path
             d="M 0,0 V -1.815 H -2.385 V 0 h -0.757 v -1.815 -0.636 -1.933 h 0.757 v 1.933 H 0 V -4.384 H 0.756 V -2.451 -1.815 0 Z"
             style="fill:#9d5e1e;fill-opacity:1;fill-rule:nonzero;stroke:none"
             id="path962" /></g><path
           d="m 74.028,93.232 h -0.765 v 0.724 h 0.765 z"
           style="fill:#9d5e1e;fill-opacity:1;fill-rule:nonzero;stroke:none"
           id="path964" /><g
           id="g966"
           transform="translate(128.7208,95.7703)"><path
             d="M 0,0 0.808,2.054 1.644,0 Z M 2.251,-1.49 H 3.022 L 1.237,2.895 H 1.14 0.466 0.368 L -1.358,-1.49 h 0.772 l 0.345,0.879 h 2.134 z"
             style="fill:#9d5e1e;fill-opacity:1;fill-rule:nonzero;stroke:none"
             id="path968" /></g><g
           id="g970"
           transform="translate(88.1606,100.4874)"><path
             d="m 0,0 0.387,-0.382 -1.17,-0.521 -0.305,0.312 z"
             style="fill:#9d5e1e;fill-opacity:1;fill-rule:nonzero;stroke:none"
             id="path972" /></g><g
           id="g974"
           transform="translate(130.0344,99.9477)"><path
             d="m 0,0 0.387,-0.382 -1.17,-0.521 -0.305,0.312 z"
             style="fill:#9d5e1e;fill-opacity:1;fill-rule:nonzero;stroke:none"
             id="path976" /></g><g
           id="g978"
           transform="translate(109.3706,99.9477)"><path
             d="m 0,0 -0.387,-0.382 1.17,-0.521 0.305,0.312 z"
             style="fill:#9d5e1e;fill-opacity:1;fill-rule:nonzero;stroke:none"
             id="path980" /></g><g
           id="g982"
           transform="translate(87.7333,99.3361)"><path
             d="M 0,0 0.193,-0.335 0.985,0.024 1.758,-0.342 1.968,0 0.985,0.576 Z"
             style="fill:#9d5e1e;fill-opacity:1;fill-rule:nonzero;stroke:none"
             id="path984" /></g><g
           id="g986"
           transform="translate(72.6258,99.3361)"><path
             d="M 0,0 0.193,-0.335 0.985,0.024 1.758,-0.342 1.968,0 0.985,0.576 Z"
             style="fill:#9d5e1e;fill-opacity:1;fill-rule:nonzero;stroke:none"
             id="path988" /></g><g
           id="g990"
           transform="translate(111.5789,98.9949)"><path
             d="m 0,0 v -0.782 c 0,-0.059 -0.052,-0.11 -0.111,-0.11 H -0.17 v 0.56 h -0.737 v -3.155 c 0,-0.332 -0.266,-0.598 -0.597,-0.598 h -1.092 c -0.331,0 -0.597,0.266 -0.597,0.598 v 3.155 H -3.93 v -3.281 c 0,-0.634 0.516,-1.143 1.143,-1.143 h 1.474 c 0.627,0 1.143,0.509 1.143,1.143 v 2.256 h 0.236 c 0.258,0 0.472,0.207 0.472,0.472 V 0 Z"
             style="fill:#9d5e1e;fill-opacity:1;fill-rule:nonzero;stroke:none"
             id="path992" /></g><g
           id="g994"
           transform="translate(127.114,95.7064)"><path
             d="m 0,0 v -0.332 c 0,-0.627 -0.509,-1.135 -1.135,-1.135 h -1.35 c -0.626,0 -1.135,0.508 -1.135,1.135 V 0 c 0,0.03 0,0.066 0.007,0.096 h 0.752 V -0.45 c 0,-0.214 0.17,-0.383 0.376,-0.383 h 1.364 c 0.214,0 0.384,0.169 0.384,0.383 v 0.583 c 0,0.206 -0.17,0.376 -0.384,0.376 h -1.401 c -0.295,0 -0.56,0.118 -0.752,0.309 -0.213,0.192 -0.346,0.48 -0.346,0.789 v 0.288 c 0,0.612 0.494,1.106 1.098,1.106 h 1.335 c 0.605,0 1.099,-0.494 1.099,-1.106 V 1.607 h -0.745 v 0.369 c 0,0.192 -0.155,0.347 -0.347,0.347 h -1.327 c -0.192,0 -0.354,-0.155 -0.354,-0.347 V 1.482 c 0,-0.192 0.162,-0.346 0.354,-0.346 h 1.372 c 0.28,0 0.538,-0.104 0.737,-0.281 C -0.155,0.649 0,0.347 0,0"
             style="fill:#9d5e1e;fill-opacity:1;fill-rule:nonzero;stroke:none"
             id="path996" /></g><g
           id="g998"
           transform="translate(86.3186,95.7064)"><path
             d="m 0,0 v -0.332 c 0,-0.627 -0.509,-1.135 -1.135,-1.135 h -1.35 c -0.626,0 -1.135,0.508 -1.135,1.135 V 0 c 0,0.03 0,0.066 0.007,0.096 h 0.752 V -0.45 c 0,-0.214 0.17,-0.383 0.376,-0.383 h 1.364 c 0.214,0 0.384,0.169 0.384,0.383 v 0.583 c 0,0.206 -0.17,0.376 -0.384,0.376 h -1.401 c -0.295,0 -0.56,0.118 -0.752,0.309 -0.213,0.192 -0.346,0.48 -0.346,0.789 v 0.288 c 0,0.612 0.494,1.106 1.098,1.106 h 1.335 c 0.605,0 1.099,-0.494 1.099,-1.106 V 1.607 h -0.745 v 0.369 c 0,0.192 -0.155,0.347 -0.347,0.347 h -1.327 c -0.192,0 -0.354,-0.155 -0.354,-0.347 V 1.482 c 0,-0.192 0.162,-0.346 0.354,-0.346 h 1.372 c 0.28,0 0.538,-0.104 0.737,-0.281 C -0.155,0.649 0,0.347 0,0"
             style="fill:#9d5e1e;fill-opacity:1;fill-rule:nonzero;stroke:none"
             id="path1000" /></g><g
           id="g1002"
           transform="translate(106.0933,95.4336)"><path
             d="m 0,0 c 0,-0.288 -0.236,-0.523 -0.523,-0.523 h -1.711 v 1.305 h 1.711 C -0.236,0.782 0,0.546 0,0.258 Z m -2.234,2.595 h 1.659 c 0.228,0 0.413,-0.184 0.413,-0.413 V 1.821 c 0,-0.228 -0.185,-0.413 -0.413,-0.413 h -1.659 z m 2.219,-1.452 h -0.081 c 0.376,0 0.686,0.31 0.686,0.686 v 0.449 c 0,0.524 -0.428,0.951 -0.959,0.951 H -2.971 V -1.15 h 2.669 c 0.567,0 1.025,0.457 1.025,1.017 v 0.538 c 0,0.406 -0.332,0.738 -0.738,0.738"
             style="fill:#9d5e1e;fill-opacity:1;fill-rule:nonzero;stroke:none"
             id="path1004" /></g><g
           id="g1006"
           transform="translate(115.2377,120.0492)"><path
             d="m 0,0 v -15.626 h -4.002 l -11.981,13.66 v -13.66 h -2.449 V 0 h 3.98 L -2.447,-13.726 V 0 Z"
             style="fill:#9d5e1e;fill-opacity:1;fill-rule:evenodd;stroke:none"
             id="path1008" /></g><g
           id="g1010"
           transform="translate(83.5979,109.5403)"><path
             d="M 0,0 -4.782,9.065 -9.508,0 Z m 0.707,-1.813 h -10.912 l -1.657,-3.304 h -2.575 l 7.899,15.628 H -3.12 L 4.938,-5.117 H 2.39 Z"
             style="fill:#9d5e1e;fill-opacity:1;fill-rule:evenodd;stroke:none"
             id="path1012" /></g><g
           id="g1014"
           transform="translate(49.5081,120.0508)"><path
             d="M 0,0 V -13.526 H 11.377 V -15.63 H -2.513 V 0 Z"
             style="fill:#9d5e1e;fill-opacity:1;fill-rule:evenodd;stroke:none"
             id="path1016" /></g><g
           id="g1018"
           transform="translate(125.5518,105.9004)"><path
             d="m 0,0 v 0 h 6.757 c 2.647,0 4.36,0.381 5.122,1.122 0.762,0.752 1.146,2.424 1.146,5.013 0,2.855 -0.329,4.644 -0.994,5.403 -0.665,0.769 -2.251,1.136 -4.764,1.136 H 0 Z m -2.517,-1.478 v 15.631 h 9.813 c 3.177,0 5.325,-0.499 6.444,-1.479 1.126,-0.98 1.695,-2.864 1.695,-5.654 0,-3.387 -0.508,-5.658 -1.509,-6.782 -1.005,-1.141 -2.999,-1.716 -5.994,-1.716 z"
             style="fill:#9d5e1e;fill-opacity:1;fill-rule:evenodd;stroke:none"
             id="path1020" /></g></g></g></g></svg>
