<svg width="200" height="200" viewBox="0 0 200 200" fill="none" xmlns="http://www.w3.org/2000/svg">
  <defs>
    <linearGradient id="kb-bg" x1="0%" y1="0%" x2="100%" y2="100%">
      <stop offset="0%" style="stop-color:#2563eb;stop-opacity:1" />
      <stop offset="100%" style="stop-color:#1d4ed8;stop-opacity:1" />
    </linearGradient>
  </defs>
  <rect width="200" height="200" rx="32" fill="url(#kb-bg)"/>
  <!-- Open book (bottom) -->
  <path d="M50 145 L50 125 Q100 105 150 125 L150 145 Q100 165 50 145Z" fill="white" opacity="0.95"/>
  <path d="M65 138 L100 118 L135 138 L100 155 Z" fill="white"/>
  <!-- Upward arrow (from book) -->
  <path d="M118 128 L128 88 L138 98 L128 78 L118 88 L128 108 Z" fill="white"/>
  <!-- Four-point star -->
  <path d="M100 48 L106 64 L122 66 L110 78 L113 94 L100 84 L87 94 L90 78 L78 66 L94 64 Z" fill="white"/>
</svg>
