<?xml version="1.0" encoding="utf-8"?>
<!-- Generator: Adobe Illustrator 25.4.1, SVG Export Plug-In . SVG Version: 6.00 Build 0)  -->
<svg version="1.1" id="Layer_1" xmlns="http://www.w3.org/2000/svg" xmlns:xlink="http://www.w3.org/1999/xlink" x="0px" y="0px"
	 viewBox="0 0 2750 2733" enable-background="new 0 0 2750 2733" xml:space="preserve">
<path fill="#1E70FF" d="M2748.177,559.715c0,0.002-0.001,0.004-0.001,0.006c0-0.002,0-0.004,0-0.006
	c-5.112-14.889-4.498-30.747-7.529-46.029c-1.226-6.179-4.287-11.958-4.339-18.201c-0.073-8.745-4.573-16.328-5.454-24.968
	c-0.818-8.03-4.462-15.794-7.028-23.62c-4.431-13.512-8.635-27.114-13.598-40.432c-5.076-13.625-10.562-27.133-16.699-40.306
	c-1.962-4.212-2.333-9.897-7.551-12.279c-8.261-18.042-17.583-35.564-27.911-52.462c-7.896-12.919-15.226-26.324-25.478-37.693
	c0,0,0,0,0,0c-3.964-8.502-10.399-15.214-16.079-22.503c-15.858-20.354-32.396-40.09-50.847-58.173
	c-2.108-2.065-3.957-4.395-5.925-6.602c0,0,0,0-0.001,0c-0.302-2.967-2.667-4.509-4.523-6.332
	c-10.168-9.992-20.502-19.658-31.825-28.521c-16.159-12.649-32.47-24.994-49.192-36.891c-24.07-17.126-49.815-31.31-76.091-44.536
	c-23.112-11.633-47.07-21.226-71.916-28.844c-15.708-4.816-31.561-9.313-47.035-14.857c-6.782-2.43-14.039-1.032-20.47-3.409
	c-10.38-3.838-21.767-2.353-31.944-6.826c-1.411-0.62-3.289-0.187-4.951-0.227c-13.579-0.326-26.607-5.34-40.302-4.769
	c-0.479,0.02-0.992-0.803-1.49-1.234c-8.667,0-17.333,0-26,0c-14.667,0-29.333,0-44,0c-69.333,0-138.667,0-208,0c-82,0-164,0-246,0
	c-1.333,0-2.667,0-4,0c-14,0-28,0-42,0c-44,0-88,0-132,0c-18,0-36,0-54,0c-2,0-4,0-6,0c-39.333,0-78.667,0-118,0c-16,0-32,0-48,0
	c-86.667,0-173.333,0-260,0c-95.333,0-190.667,0-286,0c-21.333,0-42.667,0-64,0c-2,0-4,0-6,0s-4,0-6,0c-13.333,0-26.667,0-40,0
	c-6,0-12,0-18,0c-4.667,0-9.333,0-14,0c-2.494,2.991-5.942,1.625-9.017,1.977c-3.062,0.351-6.532-1.043-8.956,2.068
	c-8.004,1.215-16.272,0.876-23.941,4.06c0,0,0.001-0.001,0.001-0.001c-2.284-0.17-4.643-0.564-6.013,1.994
	c-5.325,0.744-11.144-2.23-15.991,2.12c0.001,0,0.002,0,0.003,0c-0.001,0.001-0.002,0.001-0.003,0.002
	c-3.123,2.74-6.777,3.812-10.906,3.808c-2.604-0.002-5.484-0.189-7.767,0.799c-11.372,4.919-23.724,6.551-35.339,10.812
	c-4.937,1.811-9.825,5.694-15.8,4.516c0,0,0,0.001,0,0.001c-2.004-0.188-3.985-0.214-5.866,0.687
	c-9.238,4.422-19.215,6.849-28.737,10.578c-21.254,8.323-41.697,18.155-61.555,29.284c-25.644,14.372-51.111,28.998-74.327,47.247
	c-13.816,10.86-27.785,21.539-40.427,33.742c-15.573,15.034-30.651,30.579-46.008,45.839c-16.529,16.424-30.944,34.686-43.93,53.866
	c-18.328,27.069-37.564,53.512-51.905,83.283c-9.558,19.841-19.198,39.589-27.439,60.003c-4.926,12.202-9.596,24.481-13.542,37.079
	c-3.822,12.204-7.295,24.474-10.761,36.772c-2.129,7.552-3.692,15.199-5.507,22.798c-2.36,9.879-5.199,19.661-6.365,29.81
	C7.039,530.667,5.99,538.2,0,543.801c0,7.331,0,14.661,0,21.992c0,5.998,0,11.996,0,17.993c0,7.997,0,15.994,0,23.991
	c0,2.666,0,5.331,0,7.997c0,0.666,0,1.333,0,1.999C0,739.729,0,861.685,0,983.64c0,211.256,0,422.512,0,633.768
	c0,159.275,0,318.55,0,477.825c0,6.664,0,13.328,0,19.993c0,10.663,0,21.325,0,31.988c0,5.331,0,10.663,0,15.994
	c0,3.332,0,6.664,0,9.996c3.268,1.421,3.957,4.195,3.878,7.376c-0.091,3.681,0.548,7.185,1.756,10.712
	c3.106,9.064,4.269,18.675,5.92,27.994c2.414,13.628,5.827,26.994,9.864,40.052c6.001,19.41,12.229,38.775,19.712,57.777
	c8.341,21.182,16.984,42.153,27.14,62.503c1.391,2.787,1.957,6.59,5.988,7.376l0,0c15.89,30.961,34.385,60.305,54.908,88.392
	c10.568,14.463,22.059,28.18,33.422,42.019c20.288,24.709,42.827,47.098,67.256,67.655c10.125,8.52,20.194,17.106,30.288,25.661
	c0.254,1.757,1.264,3.139,2.608,4.101c10.485,7.503,20.647,15.543,31.615,22.269c33.904,20.793,68.868,39.609,105.998,54.139
	c11.623,4.548,22.958,10.084,34.904,13.49c16.971,4.839,34.152,9.049,51.333,13.2c14.403,3.479,28.781,6.812,43.394,9.189
	c0.909,1.529,2.381,1.876,4.005,1.902c0,0,0,0.01,0,0.01c0,0,0,0,0,0c0,0,0,0,0,0c1.337,1.326,2.675,2.653,4.012,3.979
	c6.667,0,13.333,0,20,0c2.667,0,5.333,0,8,0c4.667,0,9.333,0,14,0c78,0,156,0,234,0c109.333,0,218.667,0,328,0c2.667,0,5.333,0,8,0
	c242,0,484,0,726,0c4,0,8,0,12,0c56,0,112,0,168,0c35.333,0,70.667,0,106,0c5.333,0,10.667,0,16,0c2.667,0,5.333,0,8,0s5.333,0,8,0
	c2.595-3.052,6.133-1.805,9.322-1.972c9.248-0.484,18.012-3.037,26.689-6.013c1.93-0.052,3.861-0.105,5.792-0.157
	c0.001-0.001,0.001-0.002,0.002-0.003c0,0.001,0,0.002,0,0.003c4.759,0.898,8.845-0.528,12.453-3.599
	c0.003-0.002,0.007-0.003,0.01-0.005c10.666,0.459,20.321-5.348,30.977-5.018c0.591,0.018,1.208-0.505,1.799-0.802
	c5.591-2.804,11.817-4.071,17.673-5.755c17.047-4.903,33.822-10.442,50.15-17.287c17.294-7.249,34.88-13.897,51.177-23.345
	c0,0,0,0,0,0c9.98-5.393,19.961-10.786,29.942-16.179c0.692-0.589,1.36-1.204,2.007-1.842c0,0,0.005-0.008,0.005-0.007c0,0,0,0,0,0
	c22.413-10.961,41.902-26.362,61.966-40.88c0.952-0.689,1.309-2.201,1.942-3.33c0,0,0,0,0,0c0,0,0,0,0,0
	c6.051-7.75,15.025-12.037,22.074-18.584c30.016-27.875,59.917-55.868,85.053-88.439c4.868-6.308,9.818-12.552,14.73-18.826
	c5.68-3.045,9.419-7.471,10.051-14.108c0,0,0,0,0,0c9.839-14.283,19.636-28.593,28.182-43.709c6.015-3.673,8.54-9.53,10.038-16.03
	c0,0,0,0,0,0c3.956-8.558,9.811-16.212,12.148-25.539c3.631-4.255,5.443-9.493,7.804-14.433c1.039-0.763,2.589-1.302,3.041-2.324
	c8.405-19.018,16.566-38.108,23.09-57.913c4.427-13.435,9.797-26.569,13.589-40.23c2.171-7.82,4.36-15.638,6.329-23.51
	c2.216-8.856,4.233-17.762,6.264-26.663c2.043-8.953,5.039-17.851,5.688-26.911c0.598-8.348,1.388-16.439,4.188-24.31
	c0.608-0.024,1.216-0.049,1.824-0.074c0-10.663,0-21.325,0-31.988c0-2.666,0-5.331,0-7.997c0-3.332,0-6.664,0-9.996
	c0-7.331,0-14.661,0-21.992c0-10.663,0-21.325,0-31.988c0-1.999,0-3.999,0-5.998c0-20.659,0-41.318,0-61.977
	c0-1.333,0-2.666,0-3.999c0-123.955,0-247.909,0-371.864c0-177.935,0-355.87,0-533.805c0-3.332,0-6.664,0-9.996
	c0-155.276,0-310.553,0-465.83c0-7.331,0-14.661,0-21.992c0-8.664,0-17.327,0-25.991
	C2749.393,559.751,2748.785,559.724,2748.177,559.715z M1264.06,544.338c32.115-11.919,62.886-28.807,87.062-53.076
	c27.051-27.155,44.529-61.895,55.875-98.181c2.991-9.566,5.573-19.252,7.849-29.011c1.999-8.573,3.761-17.203,5.356-25.859
	c2.677-14.517,3.084-39.486,11.487-51.063c0.994-1.37,5.454,11.054,5.723,12.296c1.842,8.501,1.353,18.112,2.402,26.8
	c6.879,56.963,24.857,114.745,64.228,157.909c25.526,27.984,59.272,47.516,94.762,60.747c17.338,6.464,35.17,11.504,53.178,15.721
	c17.908,4.194,38.267,5.227,55.42,11.395c-2.584-1.19-14.765,4.912-18.245,5.692c-11.572,2.596-23.481,3.893-35.095,6.426
	c-22.487,4.905-44.669,11.417-65.872,20.428c-32.949,14.003-63.656,34.267-86.823,61.562c-33.513,39.483-49.3,90.989-58.641,141.928
	c-2.283,12.45-4.272,25.101-9.251,36.738c-0.874,2.042-7.651-14.748-7.986-16.012c-2.291-8.65-3.752-17.583-5.799-26.302
	c-4.269-18.175-9.111-36.239-15.193-53.899c-11.921-34.62-28.814-68.017-54.37-94.627c-26.369-27.456-60.466-45.992-96.282-58.074
	c-18.216-6.145-36.951-10.684-55.862-14.095c-12.383-2.234-35.225-10.119-47.487-7.091
	C1188.442,565.32,1227.283,557.987,1264.06,544.338z M2418.158,2091.19c-0.001,1.785-0.015,3.606-0.099,5.424
	c-0.267,5.721-1.24,11.404-4.762,15.783c-8.112,10.085-24.2,8.078-35.542,6.63c-30.258-3.861-60.308-6.558-90.778-7.946
	c-41.148-1.874-82.354-2.554-123.541-1.881c-82.26,1.344-164.487,8.087-245.682,21.478c-17.05,2.812-34.052,5.916-50.994,9.322
	c-145.675,29.29-287.558,81.427-414.09,159.864c-20.199,12.521-43.203,24.946-60.762,41.047
	c-13.494,12.374-32.244-6.408-43.025-13.804c-15.277-10.48-30.848-20.533-46.676-30.162c-31.642-19.248-64.312-36.794-97.756-52.703
	c-67.067-31.903-137.197-57.208-208.833-76.709c-40.159-10.932-80.81-20.043-121.761-27.466
	c-163.193-29.578-330.026-32.82-495.271-23.72c-23.452,1.292-46.697,9.073-46.538-22.616c0.182-36.281,0.621-72.575-0.153-108.842
	c-0.488-22.893,23.954-21.475,41.096-21.37c175.316,1.072,351.168,18.38,520.915,62.23
	c144.79,37.403,285.173,94.388,411.809,174.349c17.791,11.233,35.296,22.917,52.489,35.045c19.888,14.03,26.284,9.83,44.935-3.158
	c15.434-10.747,31.116-21.139,47.018-31.18c31.795-20.077,64.476-38.744,97.869-56.032c66.875-34.622,136.578-63.697,207.97-87.616
	c38.573-12.923,77.647-24.343,117.083-34.32c159.865-40.448,322.079-53.689,486.338-59.026c9.255-0.301,18.51-0.601,27.764-0.902
	c8.251-0.268,17.381-0.238,23.573,5.221c6.961,6.137,7.471,16.625,7.465,25.906
	C2418.198,2026.421,2418.178,2058.806,2418.158,2091.19z M2417.772,1847.195c-1.116,0.25-1.658,0.988-1.729,2.13
	c-15.575,11.374-33.706,7.525-52.334,7.682c-20.602,0.173-41.201,0.675-61.788,1.504c-41.173,1.659-82.292,4.629-123.276,8.9
	c-159.986,16.672-318.679,52.662-468.008,113.03c-20.945,8.467-41.688,17.435-62.193,26.919
	c-48.112,22.253-95.827,46.673-141.469,74.239c-28.394,17.148-55.985,35.515-82.37,55.334c-12.478,9.373-25.784,17.64-37.385,28.195
	c-6.858,6.24-7.547,6.288-15.371,0.652c-12.911-9.301-25.162-19.456-38.393-28.385c-124.372-83.934-260.865-149.238-403.594-195.317
	c-143.276-46.255-292.67-73.63-443.071-80.756c-46.128-2.186-92.481-1.803-138.282-4.14c-10.316-0.526-16.723-6.355-17.834-16.594
	c-0.501-4.617-0.303-9.318-0.298-13.981c0.097-85.611,0.287-171.222,0.307-256.832c0.025-110.593-0.079-221.186-0.147-331.778
	c-0.002-3.994-0.205-7.988-0.312-11.983c7.401-5.804,6.958-9.374,17.156-11.41c35.255-7.038,77.117-0.819,112.936,0.072
	c39.679,0.987,79.346,2.626,118.951,5.264c79.402,5.29,158.604,14.643,236.645,30.384c150.411,30.339,297.11,79.215,435.463,145.597
	c15.369,7.374,31.476,14.302,46.174,22.951c13.24,7.791,14.15,9.409,26.753,0.727c46.896-32.316,90.336-71.939,132.437-110.203
	c47.701-43.354,94.766-87.406,141.177-132.138c23.205-22.366,46.247-44.902,69.122-67.605c11.731-11.643,23.408-23.34,35.061-35.06
	c5.194-5.224,20.979-17.445,6.639-22.226c-15.094-5.887-29.252-13.606-43.647-20.862c-18.327-9.238-36.428-18.925-54.712-28.251
	c-4.4-2.244-9.138-3.828-13.722-5.714c-2.676-1.101-5.76-1.581-7.581-5.235c9.479-2.146,17.818-7.507,27.721-6.631
	c4.7,0.415,7.825-3.113,11.984-4.26c61.076-16.833,122.238-33.355,183.406-49.849c31-8.359,62.002-16.71,92.997-25.092
	c15.495-4.19,30.99-8.384,46.479-12.597c11.137-3.029,25.598-9.378,37.209-8.524c10.771,0.798,10.32,2.64,10.796,12.908
	c0.547,11.8,0.034,23.752,0.051,35.567c0.033,23.714,0.067,47.428,0.1,71.142c0.109,74.083,0.047,148.167,0.072,222.264
	c-0.005,10.986-15.641-1.014-20.22-3.336c-35.571-18.038-69.947-39.433-102.827-62.016c-3.763-2.584-6.859-2.699-10.63,0.635
	c-115.89,102.467-243.652,194.879-372.359,280.652c-125.311,83.51-254.68,156.725-389.195,223.982
	c-7.734,3.627-16.062,6.412-22.863,11.942c-6.431,1.625-12.567,3.886-17.75,8.213c-8.75,2.139-16.347,7-24.531,10.474
	c-24.067,10.218-48.085,20.562-71.932,31.28c-14.403,6.473-29.651,10.85-43.726,18.077c-3.793,2.103-8.651,1.023-12.139,4.06
	c-62.663,23.787-125.086,49.008-189.812,66.769c5.984,10.206,33.773,9.157,44.779,11.004c18.037,3.026,36.013,6.419,53.914,10.171
	c35.801,7.505,71.299,16.45,106.385,26.79c70.18,20.682,138.713,46.945,204.754,78.433c42.87,20.441,84.691,43.085,125.227,67.834
	c20.6,12.577,40.868,25.698,60.774,39.35c12.437,8.53,23.621,18.716,35.75,27.656c4.734,3.489,11.863,10.339,17.719,11.565
	c0.015,0.003,0.031,0.006,0.047,0.01c9.878,2.052,7.062-6.748,6.889-13.21c-0.893-33.463-1.485-66.948-0.685-100.419
	c3.587-150.096,48.829-289.851,147.408-404.763c21.727-25.327,45.48-48.921,71.001-70.422c12.807-10.79,25.75-21,38.831-31.438
	c10.822-8.651,22.943-15.56,33.372-24.747c7.138-4.182,14.399-8.188,20.266-14.186c2.339-1.234,4.839-2.238,6.992-3.739
	c18.764-13.085,38.836-24.049,58.472-35.682c130.189-77.131,279.865-126.424,428.352-153.225
	c71.281-12.866,143.714-20.823,216.081-21.188c8.581-0.043,14.224,5.298,15.547,13.828c1.324,8.537,2.231,17.077,2.2,25.777
	c-0.162,46.286-0.085,92.574-0.059,138.861c0.079,137.529,0.163,275.057,0.315,412.586c0.004,3.522-1.203,7.386,1.726,10.485
	c0.175,8.008,0.35,16.017,0.524,24.025C2418.249,1844.613,2418.01,1845.904,2417.772,1847.195z"/>
</svg>
